<svg width="90" height="82" viewBox="0 0 90 82" fill="none" xmlns="http://www.w3.org/2000/svg">
<path d="M89.7465 40.0279C89.5184 39.6503 89.1705 39.3887 88.7803 39.2636C87.9219 38.9612 82.4472 37.1913 78.2865 39.5443C78.3967 38.4309 78.4505 37.3124 78.4482 36.1925C80.5474 35.8228 84.4156 34.7353 86.5668 31.6178C89.3591 27.5689 88.0374 22.0562 87.8231 21.2518C87.7291 20.8653 87.5041 20.5083 87.1592 20.2534C86.7994 19.9876 86.3708 19.8798 85.9579 19.9168C85.0969 19.9749 79.1796 20.5183 76.3909 24.5602V24.56C76.3786 24.5778 76.368 24.596 76.3559 24.614C76.0168 23.6964 75.6403 22.7945 75.2235 21.9119C77.0776 20.7577 80.081 18.4005 80.9339 14.8606C82.084 10.0813 78.8785 5.42063 78.3814 4.73614C78.1659 4.42483 77.8488 4.18049 77.4593 4.05903C77.0115 3.91981 76.5503 3.96815 76.1601 4.16028C75.4241 4.50217 70.7133 6.83127 69.171 11.0432C68.9662 8.83588 68.2664 5.86149 66.1386 3.77303C62.6351 0.336514 56.9917 0.686317 56.1462 0.760849C55.7654 0.784931 55.39 0.932587 55.0852 1.20557C54.7334 1.5204 54.5372 1.94649 54.5046 2.38507C54.4103 3.29772 53.957 9.16968 57.4436 12.5911H57.4434C60.0452 15.1448 63.9422 15.5389 66.0994 15.5389C66.3105 15.5389 66.5041 15.5351 66.679 15.5293C66.7303 15.6054 66.786 15.6794 66.8507 15.7485C67.0878 16.0028 67.319 16.261 67.5461 16.5222C63.463 15.714 59.4097 17.7026 58.7706 18.0357C58.4095 18.2145 58.1077 18.5175 57.9361 18.9162C57.7619 19.321 57.7518 19.7556 57.8762 20.1454C58.1205 20.9725 59.9399 26.629 64.4952 28.4697C64.7144 28.5583 64.9352 28.6332 65.1569 28.7018C65.1229 28.7039 65.0925 28.706 65.0671 28.7077C64.6461 28.7281 64.2312 28.8992 63.9097 29.2207C63.6065 29.5239 63.4372 29.9101 63.4021 30.3061C63.2945 31.2133 62.7517 37.0816 66.188 40.5561H66.1878C66.374 40.7443 66.5679 40.9203 66.7669 41.0866C65.4258 40.3606 64.2992 39.9864 63.9647 39.8834C63.5592 39.7485 63.1041 39.7601 62.6843 39.9503C62.3048 40.1223 62.0157 40.4125 61.8413 40.7579C61.431 41.5248 58.759 46.8248 60.7043 51.3293C60.7446 51.4229 60.7892 51.513 60.8327 51.6041C59.9647 50.2304 59.0956 49.3007 58.8527 49.0512C58.5514 48.7294 58.1297 48.5205 57.6567 48.497C57.2541 48.478 56.879 48.5931 56.5716 48.8055C55.8333 49.2885 50.9585 52.6526 50.5055 57.5349C50.2232 60.5765 51.6905 63.3651 52.9749 65.1731C50.3825 65.9014 47.685 66.2846 44.954 66.2943C42.2544 66.2762 39.5878 65.8928 37.0242 65.1724C38.3088 63.3642 39.776 60.5768 39.4937 57.5349C39.0446 52.696 34.2525 49.3485 33.447 48.8181C33.1359 48.5975 32.751 48.4771 32.3428 48.4966C31.8749 48.52 31.4574 48.7248 31.1568 49.041C30.9181 49.2855 30.0413 50.2202 29.1664 51.6046C29.21 51.5132 29.2547 51.4229 29.2951 51.3292C31.2232 46.8649 28.6157 41.6188 28.1687 40.7777C27.9954 40.4235 27.7025 40.1254 27.3155 39.95C26.901 39.7623 26.452 39.7487 26.0509 39.8783C25.7299 39.9765 24.5901 40.3518 23.2314 41.0875C23.4307 40.9208 23.6249 40.7447 23.8114 40.5561C27.2304 37.0992 26.7104 31.2729 26.5988 30.3188C26.5658 29.9183 26.3961 29.5271 26.0897 29.2207C25.7732 28.9041 25.366 28.7336 24.9516 28.7091C24.9222 28.7069 24.8842 28.7044 24.842 28.7018C25.0639 28.6334 25.2848 28.5583 25.504 28.4697C30.0151 26.6467 31.8432 21.0817 32.116 20.1692C32.2486 19.7735 32.2414 19.3293 32.0635 18.9162C31.8931 18.5209 31.595 18.2198 31.2378 18.0406C30.6059 17.7107 26.5433 15.7133 22.4512 16.5247C22.6787 16.2628 22.9107 16.0037 23.1486 15.7486C23.2131 15.6794 23.269 15.6054 23.3203 15.5294C23.4952 15.5352 23.6889 15.5391 23.9 15.5391C26.0572 15.5391 29.9543 15.1448 32.5557 12.5914C36.0296 9.18234 35.5921 3.34079 35.4956 2.39403C35.4648 1.95247 35.2681 1.52286 34.9139 1.2061C34.619 0.942079 34.2583 0.795477 33.8902 0.76454C33.1598 0.69704 27.4118 0.290635 23.8601 3.77409C21.7325 5.86236 21.0325 8.83675 20.8279 11.044C19.3021 6.8768 14.6745 4.55262 13.8622 4.17188C13.4674 3.97043 12.9962 3.91735 12.5397 4.05938C12.1536 4.17979 11.8385 4.42131 11.6231 4.7291C11.1366 5.39813 7.91223 10.0699 9.06535 14.8616C9.91842 18.4021 12.9218 20.7587 14.7758 21.9124C14.3588 22.795 13.9825 23.6971 13.6432 24.6149C13.6313 24.5971 13.6205 24.5788 13.6084 24.5611C10.8467 20.5587 5.01765 19.9869 4.06632 19.9194C3.64638 19.8754 3.2071 19.9829 2.8399 20.2541C2.49835 20.5063 2.27441 20.8591 2.17896 21.2418C1.9689 22.0277 0.632615 27.559 3.4328 31.6192C5.58419 34.737 9.45277 35.8244 11.5511 36.1937C11.549 37.3134 11.6026 38.4318 11.7128 39.5452C7.55663 37.1946 2.09001 38.9581 1.22711 39.2615C0.833884 39.3859 0.482673 39.6485 0.252928 40.0289C0.020018 40.4146 -0.0473061 40.8546 0.0307407 41.2655C0.143065 41.8925 1.28722 47.6873 5.52319 50.2666C7.23495 51.3084 9.15412 51.6352 10.8887 51.635C12.5465 51.635 14.0326 51.3365 15.0092 51.0783C15.1848 51.4357 15.3666 51.7885 15.5536 52.1371C14.9718 52.0126 14.3695 51.9398 13.7497 51.9398C13.7127 51.9398 13.6747 51.94 13.6376 51.9405C8.75615 52.0073 4.9512 56.5286 4.35319 57.279C4.09005 57.5863 3.93097 57.9856 3.93097 58.4221C3.93097 58.8884 4.1129 59.3126 4.40962 59.6273C4.88194 60.1453 8.84545 64.3238 13.7228 64.3234C13.7608 64.3234 13.7993 64.3232 13.8371 64.3227C17.3408 64.2747 20.2601 61.9841 21.8425 60.4281C22.5963 61.1518 23.3815 61.8373 24.1946 62.4837C23.7687 62.5797 23.344 62.7068 22.925 62.8738C18.3881 64.6808 16.4506 70.2638 16.1606 71.1782C16.017 71.5818 16.0196 72.0386 16.2022 72.4628C16.3773 72.8695 16.6881 73.1768 17.0592 73.3538C17.5267 73.5867 20.5402 75.0185 23.9183 75.0183C25.1105 75.0183 26.3487 74.8397 27.5357 74.3674C29.0186 73.7767 30.2176 72.807 31.1716 71.7361C29.5089 74.9815 29.6222 78.7621 29.6637 79.5049C29.6727 79.9069 29.8189 80.3079 30.1067 80.6322C30.4013 80.9641 30.7935 81.1581 31.202 81.2093C31.222 81.2118 31.842 81.2854 32.8077 81.2854C35.0164 81.2854 39.0332 80.8999 41.8095 78.3959C43.667 76.7197 44.5685 74.4364 44.9997 72.4364C45.4309 74.4364 46.3325 76.7198 48.1901 78.3963C50.9664 80.9003 54.9828 81.2856 57.1914 81.2854C57.9578 81.2854 58.5067 81.239 58.7106 81.2186C59.1499 81.1854 59.5776 80.9878 59.8931 80.6324C60.1793 80.3098 60.3254 79.911 60.3354 79.5109C60.377 78.7673 60.4916 74.9828 58.8274 71.735C59.7815 72.8064 60.9808 73.7766 62.4643 74.3675C63.6515 74.84 64.8888 75.0185 66.0811 75.0185C69.4331 75.0183 72.4273 73.6083 72.9292 73.3594C73.305 73.1831 73.6202 72.8738 73.797 72.463C73.9765 72.0462 73.982 71.5981 73.8456 71.1996C73.5736 70.3364 71.6406 64.6927 67.0745 62.8741C66.6549 62.7069 66.2297 62.58 65.8032 62.484C66.6167 61.8375 67.4023 61.1518 68.1564 60.4279C69.7386 61.9839 72.6583 64.2751 76.1623 64.3231C76.2007 64.3236 76.2386 64.3238 76.2766 64.3238C81.1093 64.3236 85.046 60.2203 85.5759 59.6425C85.8806 59.3265 86.0681 58.8964 86.0681 58.4225C86.0681 57.99 85.9117 57.594 85.6526 57.2878C85.0649 56.5493 81.2538 52.0077 76.3617 51.9409C76.3241 51.9404 76.2868 51.9402 76.2495 51.9402C75.6304 51.9402 75.028 52.0115 74.4465 52.1356C74.6332 51.7878 74.8145 51.4357 74.9899 51.079C75.9663 51.3372 77.4524 51.6356 79.1104 51.6356C80.8448 51.6356 82.7649 51.3086 84.4766 50.2669C88.6437 47.7295 89.8186 42.0792 89.9622 41.3005C90.0508 40.8785 89.9861 40.4246 89.7465 40.0279ZM59.9063 10.0818C58.4317 8.63478 57.9901 6.12551 57.9467 4.25116C59.5554 4.32639 62.0772 4.71346 63.6768 6.28248C65.1887 7.76625 65.647 10.2697 65.7313 12.0193C64.092 11.982 61.5047 11.6507 59.9063 10.0818ZM26.3226 6.28301C27.9221 4.71416 30.4424 4.32674 32.0531 4.25151C32.0097 6.12568 31.5678 8.63496 30.0935 10.0818C28.4951 11.6507 25.9076 11.9822 24.2685 12.0191C24.3528 10.2697 24.8111 7.76642 26.3226 6.28301ZM11.627 32.6277C9.91754 32.2448 7.52938 31.3647 6.32704 29.622C5.05491 27.7773 5.10448 25.2283 5.30593 23.6289C7.14565 23.9929 9.54277 24.858 10.7151 26.5571C11.9872 28.4003 11.8708 31.0064 11.627 32.6277ZM7.35149 47.2626C5.43882 46.0981 4.39732 43.7367 3.89265 42.1717C5.55114 41.8136 8.21 41.5194 10.1079 42.6744C12.0213 43.8386 12.9779 46.2656 13.4163 47.8452C11.6998 48.1932 9.16028 48.3634 7.35149 47.2626ZM22.1533 20.2588C24.2298 19.4203 26.7069 20.0249 28.2248 20.5705C27.4686 22.2861 26.1017 24.4361 24.1869 25.2099C22.1102 26.0494 19.5923 25.3672 18.0636 24.7753C18.8101 23.1907 20.1898 21.0523 22.1533 20.2588ZM12.4836 14.0381C11.9594 11.8598 12.9223 9.49822 13.6849 8.07843C15.2706 9.07898 17.1966 10.7475 17.6802 12.7549C18.2047 14.9321 17.1597 17.3224 16.3497 18.7476C14.8918 17.7761 12.9795 16.0967 12.4836 14.0381ZM16.2933 27.851C17.3286 28.2852 18.8722 28.8162 20.6024 29.0215C18.9193 29.3725 17.0393 30.0665 15.4924 31.4002C15.6888 30.2028 15.9549 29.0173 16.2933 27.851ZM15.5167 40.1078C15.5749 38.3572 15.9957 35.8473 17.4847 34.3415C19.062 32.7475 21.5759 32.3228 23.1843 32.2241C23.169 34.0989 22.7647 36.6147 21.3118 38.0837C19.7372 39.6761 17.1548 40.0461 15.5167 40.1078ZM13.7898 60.8064C11.5518 60.8292 9.41322 59.3894 8.15393 58.3323C9.36752 57.1477 11.4627 55.4852 13.6863 55.4547C15.9226 55.4308 18.0261 56.9714 19.2371 58.0765C17.968 59.2834 15.9076 60.7774 13.7898 60.8064ZM17.9145 46.446C17.7043 46.9327 17.548 47.4268 17.4334 47.922C17.3719 47.7759 17.3107 47.6299 17.2513 47.4824C16.7384 46.2094 16.3214 44.9125 15.9925 43.6018C17.4849 43.5136 19.4668 43.209 21.2985 42.3237C19.9661 43.3294 18.6783 44.6792 17.9145 46.446ZM21.4052 53.9277C20.8228 52.2754 20.3025 49.7842 21.1419 47.8404C22.0313 45.7831 24.2185 44.4732 25.681 43.7961C26.3481 45.5488 26.8862 48.0399 26.0678 49.9349C25.1797 51.991 22.9086 53.2747 21.4052 53.9277ZM23.3117 56.9192C24.9698 56.1318 27.114 54.7971 28.5136 52.7396C27.6484 54.3988 26.9595 56.4769 27.166 58.7081C27.2283 59.3792 27.3728 60.0215 27.576 60.6325C26.0498 59.5385 24.6207 58.2968 23.3117 56.9192ZM26.2353 71.1C24.1549 71.9281 21.6416 71.3402 20.0872 70.8027C20.7971 69.2629 22.16 66.9617 24.2263 66.1387C26.307 65.3094 28.8214 66.0046 30.3472 66.6038C29.5929 68.1848 28.2023 70.3163 26.2353 71.1ZM30.6665 58.3838C30.4604 56.1554 31.7515 53.956 32.7107 52.6582C34.1365 53.8755 35.8027 55.8026 35.9936 57.8591C36.2007 60.0892 34.8234 62.3049 33.8171 63.5992C32.5138 62.4289 30.8624 60.4926 30.6665 58.3838ZM32.8587 69.3764C33.1705 68.8366 33.4275 68.3216 33.6334 67.8661C33.8963 67.9598 34.1597 68.0502 34.4233 68.1368C33.9911 68.4063 33.5745 68.7132 33.1834 69.066C33.0716 69.1672 32.9635 69.271 32.8587 69.3764ZM39.4547 75.7845C37.6818 77.3834 34.9277 77.723 33.2011 77.7631C33.3201 76.0171 33.7954 73.2492 35.5387 71.6763C37.2207 70.1581 39.8244 69.8704 41.5565 69.8704C41.6499 69.8704 41.7406 69.8712 41.8286 69.8728C41.682 71.6799 41.113 74.2879 39.4547 75.7845ZM65.8124 25.2099C63.8974 24.4361 62.5307 22.2858 61.7743 20.5701C63.2901 20.0252 65.7688 19.4196 67.8456 20.2587C69.8079 21.0518 71.1874 23.1877 71.9341 24.772C70.4018 25.3616 67.8759 26.044 65.8124 25.2099ZM50.5451 75.7849C48.8864 74.2881 48.3174 71.6799 48.1708 69.8726C49.8898 69.8412 52.6882 70.0766 54.4608 71.6763H54.461C56.2031 73.2485 56.6788 76.0146 56.798 77.7631C55.0714 77.723 52.3175 77.3832 50.5451 75.7849ZM56.8164 69.0663C56.4246 68.7127 56.0061 68.4077 55.5726 68.138C55.8378 68.0509 56.1028 67.96 56.3673 67.8658C56.5735 68.3219 56.8287 68.8354 57.1413 69.3766C57.0363 69.2711 56.9282 69.1674 56.8164 69.0663ZM59.3331 58.3834C59.1374 60.4926 57.4858 62.429 56.1826 63.5992C55.1762 62.3049 53.799 60.0892 54.006 57.8591C54.1969 55.8024 55.8633 53.8753 57.2893 52.6581C58.2467 53.9537 59.5394 56.1538 59.3331 58.3834ZM69.9121 70.8029C68.3575 71.3404 65.8445 71.9277 63.7647 71.1001C61.7986 70.317 60.4085 68.188 59.6537 66.607C61.1828 66.0099 63.7051 65.3145 65.7732 66.1385H65.7733C67.8388 66.9614 69.2011 69.2608 69.9121 70.8029ZM62.4226 60.6343C62.6258 60.0224 62.7712 59.3796 62.8336 58.7077C63.0399 56.4773 62.3516 54.3995 61.4871 52.741C62.8863 54.7973 65.0301 56.1324 66.6881 56.9195C65.3787 58.2978 63.9491 59.5399 62.4226 60.6343ZM68.5957 53.924C67.0908 53.2671 64.8141 51.9785 63.9317 49.9349C63.1131 48.0398 63.6513 45.5484 64.3184 43.7957C65.7795 44.4723 67.9678 45.782 68.8572 47.8399C69.6964 49.7826 69.1775 52.2719 68.5957 53.924ZM68.702 42.3244C70.5326 43.209 72.5149 43.5143 74.0069 43.6027C73.678 44.9132 73.2613 46.2099 72.7483 47.4825C72.6889 47.6299 72.6277 47.7759 72.5662 47.922C72.4511 47.4267 72.2948 46.9324 72.0846 46.4456C71.3212 44.6792 70.0339 43.3297 68.702 42.3244ZM76.3132 55.4549C78.5359 55.4853 80.63 57.1463 81.8453 58.3326C80.586 59.39 78.4526 60.8386 76.21 60.8066C74.092 60.7776 72.0315 59.2836 70.7624 58.0767C71.9733 56.9716 74.07 55.4324 76.3132 55.4549ZM68.6878 38.0835C67.2348 36.6145 66.8307 34.0986 66.8154 32.2237C68.4222 32.3225 70.9371 32.7468 72.5145 34.341C74.0029 35.846 74.4242 38.3535 74.4829 40.104C72.8424 40.0391 70.2528 39.6665 68.6878 38.0835ZM69.3953 29.0215C71.1259 28.8164 72.6705 28.2857 73.7062 27.8512C74.0445 29.0171 74.3105 30.2022 74.5067 31.3993C72.9594 30.0655 71.0786 29.3724 69.3953 29.0215ZM73.6531 18.7455C72.8445 17.3166 71.7979 14.919 72.3194 12.7549C72.803 10.7475 74.729 9.07898 76.3147 8.07843C77.0768 9.49699 78.0402 11.8593 77.516 14.0378C77.0203 16.0951 75.1105 17.7738 73.6531 18.7455ZM79.2844 26.5571C80.4568 24.8578 82.8541 23.9929 84.6937 23.6289C84.8951 25.2264 84.9452 27.7766 83.6728 29.6216C82.4708 31.3636 80.0852 32.2437 78.376 32.627C78.135 31.0027 78.02 28.389 79.2844 26.5571ZM82.6485 47.2625C80.8406 48.3627 78.3035 48.1932 76.5867 47.8461C77.0289 46.2649 77.9898 43.8316 79.8915 42.6746H79.8917C81.7886 41.5199 84.4457 41.8134 86.1066 42.1722C85.602 43.7372 84.5606 46.0981 82.6485 47.2625Z" fill="white"/>
</svg>
