<svg width="109" height="80" viewBox="0 0 109 80" fill="none" xmlns="http://www.w3.org/2000/svg">
<path d="M54.2279 75.7628C53.6711 75.7628 53.1243 75.9895 52.7305 76.3841C52.336 76.7779 52.1093 77.3247 52.1093 77.8814C52.1093 78.4406 52.336 78.985 52.7305 79.3787C53.1243 79.7725 53.6711 80 54.2279 80C54.7846 80 55.3314 79.7733 55.7252 79.3787C56.1198 78.985 56.3465 78.4406 56.3465 77.8814C56.3465 77.3247 56.1198 76.7779 55.7252 76.3841C55.3314 75.9895 54.7846 75.7628 54.2279 75.7628Z" fill="white"/>
<path d="M10.5913 64.3062C9.42154 64.3062 8.47351 65.2551 8.47351 66.4248V68.9852C8.47351 70.1549 9.42154 71.1038 10.5913 71.1038C11.761 71.1038 12.7099 70.1549 12.7099 68.9852V66.4248C12.7099 65.2543 11.761 64.3062 10.5913 64.3062V64.3062Z" fill="white"/>
<path d="M19.0648 64.3062C17.8942 64.3062 16.9462 65.2551 16.9462 66.4248V68.9852C16.9462 70.1549 17.8942 71.1038 19.0648 71.1038C20.2345 71.1038 21.1826 70.1549 21.1826 68.9852V66.4248C21.1826 65.2543 20.2345 64.3062 19.0648 64.3062V64.3062Z" fill="white"/>
<path d="M27.5375 64.3062C26.3678 64.3062 25.4197 65.2551 25.4197 66.4248V68.9852C25.4197 70.1549 26.3678 71.1038 27.5375 71.1038C28.7072 71.1038 29.6561 70.1549 29.6561 68.9852V66.4248C29.6561 65.2543 28.7072 64.3062 27.5375 64.3062V64.3062Z" fill="white"/>
<path d="M45.7816 64.3062C44.6119 64.3062 43.6631 65.2551 43.6631 66.4248V68.9852C43.6631 70.1549 44.6119 71.1038 45.7816 71.1038C46.9514 71.1038 47.9002 70.1549 47.9002 68.9852V66.4248C47.9002 65.2543 46.9514 64.3062 45.7816 64.3062V64.3062Z" fill="white"/>
<path d="M54.2552 64.3062C53.0846 64.3062 52.1366 65.2551 52.1366 66.4248V68.9852C52.1366 70.1549 53.0846 71.1038 54.2552 71.1038C55.4249 71.1038 56.3729 70.1549 56.3729 68.9852V66.4248C56.3729 65.2543 55.4249 64.3062 54.2552 64.3062V64.3062Z" fill="white"/>
<path d="M45.7816 44.9081C44.6119 44.9081 43.6631 45.8569 43.6631 47.0267V47.8233C43.6631 48.993 44.6119 49.9411 45.7816 49.9411C46.9514 49.9411 47.9002 48.993 47.9002 47.8233V47.0267C47.9002 45.8569 46.9514 44.9081 45.7816 44.9081Z" fill="white"/>
<path d="M54.2552 44.9081C53.0846 44.9081 52.1366 45.8569 52.1366 47.0267V47.8233C52.1366 48.993 53.0846 49.9411 54.2552 49.9411C55.4249 49.9411 56.3729 48.993 56.3729 47.8233V47.0267C56.3729 45.8569 55.4249 44.9081 54.2552 44.9081Z" fill="white"/>
<path d="M10.5913 46.2673C9.42154 46.2673 8.47351 47.2153 8.47351 48.385V50.0858C8.47351 51.2556 9.42154 52.2036 10.5913 52.2036C11.761 52.2036 12.7099 51.2556 12.7099 50.0858V48.385C12.7099 47.2153 11.761 46.2673 10.5913 46.2673Z" fill="white"/>
<path d="M19.0648 46.2673C17.8942 46.2673 16.9462 47.2153 16.9462 48.385V50.0858C16.9462 51.2556 17.8942 52.2036 19.0648 52.2036C20.2345 52.2036 21.1826 51.2556 21.1826 50.0858V48.385C21.1826 47.2153 20.2345 46.2673 19.0648 46.2673Z" fill="white"/>
<path d="M27.5375 46.2673C26.3678 46.2673 25.4197 47.2153 25.4197 48.385V50.0858C25.4197 51.2556 26.3678 52.2036 27.5375 52.2036C28.7072 52.2036 29.6561 51.2556 29.6561 50.0858V48.385C29.6561 47.2153 28.7072 46.2673 27.5375 46.2673Z" fill="white"/>
<path d="M108.021 39.7775C108.019 39.7742 108.019 39.7708 108.016 39.7675L100.857 30.054V26.9071C100.857 25.7374 99.9077 24.7885 98.738 24.7885C97.5683 24.7885 96.6203 25.7374 96.6203 26.9071V30.054L96.3928 30.3617H88.3056V28.8288C88.3056 27.6591 87.3575 26.7102 86.187 26.7102C85.0173 26.7102 84.0692 27.6591 84.0692 28.8288V30.3617H76.231V28.8288C76.231 27.6591 75.283 26.7102 74.1133 26.7102C72.9436 26.7102 71.9947 27.6591 71.9947 28.8288V30.3617H62.7775V17.0223C62.7775 13.0391 60.0393 9.68378 56.3464 8.73906V2.11859C56.3464 0.948855 55.3976 0 54.2279 0C53.0581 0 52.1093 0.948855 52.1093 2.11859V8.73906C48.4164 9.68378 45.6782 13.0391 45.6782 17.0223V30.3625H36.4345V28.8288C36.4345 27.6591 35.4857 26.7111 34.316 26.7111C33.1462 26.7111 32.1982 27.6591 32.1982 28.8288V30.3625H24.36V28.8288C24.36 27.6591 23.412 26.7111 22.2423 26.7111C21.0717 26.7111 20.1237 27.6591 20.1237 28.8288V30.3625H12.0365L11.809 30.054V26.9071C11.809 25.7374 10.861 24.7894 9.69123 24.7894C8.5215 24.7894 7.57264 25.7374 7.57264 26.9071V30.054L0.413625 39.7675C0.407007 39.7758 0.403698 39.7833 0.397907 39.7907C0.148078 40.1381 0 40.5634 0 41.0241V77.8822C0 79.052 0.948028 80 2.11859 80H45.7816C46.9514 80 47.9002 79.052 47.9002 77.8822C47.9002 76.7125 46.9514 75.7636 45.7816 75.7636H38.2214V57.5336H70.2078V75.7636H62.6476C61.4779 75.7636 60.5298 76.7125 60.5298 77.8822C60.5298 79.052 61.4779 80 62.6476 80H106.311C107.481 80 108.429 79.052 108.429 77.8822V41.0241C108.429 40.5576 108.277 40.1274 108.021 39.7775V39.7775ZM74.4442 43.1427H104.193V54.9914H74.4442V43.1427ZM95.3579 38.9055L98.738 34.3209L102.118 38.9055H95.3579ZM90.0949 38.9055H74.4194C74.3275 38.3033 73.9784 37.7524 73.4341 37.419L68.842 34.5989H93.2699L90.0949 38.9055ZM49.9154 19.1409H58.5403V28.2729L55.3231 26.2974C54.6431 25.8797 53.7861 25.8797 53.1061 26.2974L49.9154 28.2572V19.1409ZM54.2146 30.5884L64.8282 37.1055H43.601L54.2146 30.5884ZM54.2279 12.7099C55.836 12.7099 57.239 13.5958 57.9803 14.9037H50.4755C51.2167 13.5958 52.6197 12.7099 54.2279 12.7099ZM39.5872 34.5989L34.9951 37.419C34.4508 37.7532 34.1017 38.3033 34.0099 38.9055H18.3343L15.1593 34.5989H39.5872ZM4.23634 43.1427H33.9851V54.9914H4.23634V43.1427ZM9.69123 34.3201L13.0714 38.9055H6.31109L9.69123 34.3201ZM4.23634 75.7636V59.2278H33.9851V75.7636H4.23634ZM54.2146 53.2964H38.2214V41.3418H70.2078V53.2964H54.2146ZM74.4442 75.7636V59.2278H104.193V75.7636H74.4442Z" fill="white"/>
<path d="M97.838 64.3062C96.6682 64.3062 95.7194 65.2551 95.7194 66.4248V68.9852C95.7194 70.1549 96.6682 71.1038 97.838 71.1038C99.0077 71.1038 99.9557 70.1549 99.9557 68.9852V66.4248C99.9557 65.2543 99.0077 64.3062 97.838 64.3062V64.3062Z" fill="white"/>
<path d="M89.3644 64.3062C88.1947 64.3062 87.2467 65.2551 87.2467 66.4248V68.9852C87.2467 70.1549 88.1947 71.1038 89.3644 71.1038C90.535 71.1038 91.483 70.1549 91.483 68.9852V66.4248C91.483 65.2543 90.535 64.3062 89.3644 64.3062V64.3062Z" fill="white"/>
<path d="M80.8918 64.3062C79.7221 64.3062 78.7732 65.2551 78.7732 66.4248V68.9852C78.7732 70.1549 79.7221 71.1038 80.8918 71.1038C82.0615 71.1038 83.0095 70.1549 83.0095 68.9852V66.4248C83.0095 65.2543 82.0615 64.3062 80.8918 64.3062V64.3062Z" fill="white"/>
<path d="M62.6476 71.1038C63.8173 71.1038 64.7662 70.1549 64.7662 68.9852V66.4248C64.7662 65.2551 63.8173 64.3062 62.6476 64.3062C61.4779 64.3062 60.529 65.2551 60.529 66.4248V68.9852C60.529 70.1549 61.4779 71.1038 62.6476 71.1038V71.1038Z" fill="white"/>
<path d="M62.6476 44.9081C61.4779 44.9081 60.529 45.8569 60.529 47.0267V47.8233C60.529 48.993 61.4779 49.9411 62.6476 49.9411C63.8173 49.9411 64.7662 48.993 64.7662 47.8233V47.0267C64.7662 45.8569 63.8173 44.9081 62.6476 44.9081V44.9081Z" fill="white"/>
<path d="M97.838 46.2673C96.6682 46.2673 95.7194 47.2153 95.7194 48.385V50.0858C95.7194 51.2556 96.6682 52.2036 97.838 52.2036C99.0077 52.2036 99.9557 51.2556 99.9557 50.0858V48.385C99.9557 47.2153 99.0077 46.2673 97.838 46.2673V46.2673Z" fill="white"/>
<path d="M89.3644 46.2673C88.1947 46.2673 87.2467 47.2153 87.2467 48.385V50.0858C87.2467 51.2556 88.1947 52.2036 89.3644 52.2036C90.535 52.2036 91.483 51.2556 91.483 50.0858V48.385C91.483 47.2153 90.535 46.2673 89.3644 46.2673Z" fill="white"/>
<path d="M80.8918 46.2673C79.7221 46.2673 78.7732 47.2153 78.7732 48.385V50.0858C78.7732 51.2556 79.7221 52.2036 80.8918 52.2036C82.0615 52.2036 83.0095 51.2556 83.0095 50.0858V48.385C83.0095 47.2153 82.0615 46.2673 80.8918 46.2673Z" fill="white"/>
</svg>
