<svg width="78" height="90" viewBox="0 0 78 90" fill="none" xmlns="http://www.w3.org/2000/svg">
<path d="M70.5 7.5C70.5 3.30029 67.1997 0 63 0H7.5C3.30029 0 0 3.30029 0 7.5V19.5H12V82.5C12 86.6997 15.3003 90 19.5 90H70.5C74.6997 90 78 86.6997 78 82.5V75H70.5V7.5ZM12 16.5H3V7.5C3 4.94971 4.94971 3 7.5 3C10.0503 3 12 4.94971 12 7.5V16.5ZM15 82.5V7.5C15 5.84985 14.4001 4.34985 13.5 3H63C65.5503 3 67.5 4.94971 67.5 7.5V75H24V82.5C24 85.0503 22.0503 87 19.5 87C16.9497 87 15 85.0503 15 82.5ZM75 78V82.5C75 85.0503 73.0503 87 70.5 87H25.5C26.5503 85.6501 27 84.1501 27 82.5V78H75Z" fill="white"/>
<path d="M52.5 48H64.5V51H52.5V48Z" fill="white"/>
<path d="M18 48H49.5V51H18V48Z" fill="white"/>
<path d="M34.5 54H64.5V57H34.5V54Z" fill="white"/>
<path d="M18 54H31.5V57H18V54Z" fill="white"/>
<path d="M45 66H64.5V69H45V66Z" fill="white"/>
<path d="M18 66H42V69H18V66Z" fill="white"/>
<path d="M38.6997 30.5999L40.5 31.8003L42.3003 30.5999C47.6997 27 51 20.8499 51 14.4001V9.44971L40.5 6L30 9.44971V14.4001C30 20.8499 33.3003 27 38.6997 30.5999ZM33 11.5503L40.5 9L48 11.5503V14.4001C48 19.9497 45.3003 25.0503 40.6501 28.1997H40.5L40.3499 28.0503C35.6997 25.0503 33 19.8003 33 14.25V11.5503Z" fill="white"/>
<path d="M45 15.1501L42 14.8499C41.6997 17.4001 40.3499 19.8003 38.25 21.3003L39.9001 23.8499C42.75 21.75 44.6997 18.5999 45 15.1501Z" fill="white"/>
<path d="M27 60H64.5V63H27V60Z" fill="white"/>
<path d="M18 60H24V63H18V60Z" fill="white"/>
<path d="M34.5 42H64.5V45H34.5V42Z" fill="white"/>
<path d="M18 42H31.5V45H18V42Z" fill="white"/>
<path d="M30 34.5H51V37.5H30V34.5Z" fill="white"/>
</svg>
