<svg width="90" height="90" viewBox="0 0 90 90" fill="none" xmlns="http://www.w3.org/2000/svg">
<path d="M57.085 0H21.2695V15.8203H63.457C75.1852 15.8203 84.7266 25.3617 84.7266 37.0898C84.7266 46.762 77.8964 55.1842 68.6721 57.5321C68.7096 56.8749 68.7305 56.2134 68.7305 55.5469C68.7305 36.5493 53.3537 21.0938 34.4531 21.0938C15.5043 21.0938 0 36.5999 0 55.5469C0 74.4959 15.5064 90 34.4531 90C46.8932 90 57.8058 83.304 63.8132 73.3101C78.9855 70.1371 90 56.7257 90 41.2646C90 38.6118 90 35.5679 90 32.915C90 14.8159 75.1815 0 57.085 0ZM52.9102 10.5469H42.3633V5.27344H52.9102V10.5469ZM26.543 5.27344H37.0898V10.5469H26.543V5.27344ZM63.457 10.5469H58.1836V5.2977C66.16 5.61129 73.2797 9.31852 78.1318 15.0149C73.8049 12.108 68.741 10.5469 63.457 10.5469V10.5469ZM34.4531 84.7266C18.3633 84.7266 5.27344 71.6367 5.27344 55.5469C5.27344 39.4571 18.3633 26.3672 34.4531 26.3672C50.4459 26.3672 63.457 39.4571 63.457 55.5469C63.457 71.6367 50.4459 84.7266 34.4531 84.7266ZM66.7948 66.9602C67.2367 65.6986 67.6079 64.404 67.9027 63.0805C71.4959 62.4713 74.9092 61.1327 77.9442 59.156C74.961 62.5906 71.1422 65.311 66.7948 66.9602V66.9602Z" fill="white"/>
<path d="M34.4531 47.6367C38.8148 47.6367 42.3633 44.0882 42.3633 39.7266C42.3633 35.3649 38.8148 31.8164 34.4531 31.8164C30.0915 31.8164 26.543 35.3649 26.543 39.7266C26.543 44.0882 30.0915 47.6367 34.4531 47.6367ZM34.4531 37.0898C35.907 37.0898 37.0898 38.2727 37.0898 39.7266C37.0898 41.1804 35.907 42.3633 34.4531 42.3633C32.9992 42.3633 31.8164 41.1804 31.8164 39.7266C31.8164 38.2727 32.9992 37.0898 34.4531 37.0898Z" fill="white"/>
<path d="M34.4531 63.457C30.0915 63.457 26.543 67.0055 26.543 71.3672C26.543 75.7288 30.0915 79.2773 34.4531 79.2773C38.8148 79.2773 42.3633 75.7288 42.3633 71.3672C42.3633 67.0055 38.8148 63.457 34.4531 63.457ZM34.4531 74.0039C32.9992 74.0039 31.8164 72.8211 31.8164 71.3672C31.8164 69.9133 32.9992 68.7305 34.4531 68.7305C35.907 68.7305 37.0898 69.9133 37.0898 71.3672C37.0898 72.8211 35.907 74.0039 34.4531 74.0039Z" fill="white"/>
<path d="M18.6328 47.6367C14.2712 47.6367 10.7227 51.1852 10.7227 55.5469C10.7227 59.9085 14.2712 63.457 18.6328 63.457C22.9945 63.457 26.543 59.9085 26.543 55.5469C26.543 51.1852 22.9945 47.6367 18.6328 47.6367ZM18.6328 58.1836C17.1789 58.1836 15.9961 57.0008 15.9961 55.5469C15.9961 54.093 17.1789 52.9102 18.6328 52.9102C20.0867 52.9102 21.2695 54.093 21.2695 55.5469C21.2695 57.0008 20.0867 58.1836 18.6328 58.1836Z" fill="white"/>
<path d="M50.2734 47.6367C45.9118 47.6367 42.3633 51.1852 42.3633 55.5469C42.3633 59.9085 45.9118 63.457 50.2734 63.457C54.6351 63.457 58.1836 59.9085 58.1836 55.5469C58.1836 51.1852 54.6351 47.6367 50.2734 47.6367ZM50.2734 58.1836C48.8196 58.1836 47.6367 57.0008 47.6367 55.5469C47.6367 54.093 48.8196 52.9102 50.2734 52.9102C51.7273 52.9102 52.9102 54.093 52.9102 55.5469C52.9102 57.0008 51.7273 58.1836 50.2734 58.1836Z" fill="white"/>
<path d="M31.8164 52.9102H37.0898V58.1836H31.8164V52.9102Z" fill="white"/>
</svg>
