<svg width="65" height="90" viewBox="0 0 65 90" fill="none" xmlns="http://www.w3.org/2000/svg">
<path d="M57.734 33.2439C51.9325 25.8467 43.3845 21.4206 34.0715 20.9248V9.97078H37.8433C38.8121 9.97078 39.5976 9.18526 39.5976 8.2164C39.5976 7.24754 38.8121 6.46202 37.8433 6.46202H34.0715V1.75438C34.0715 0.785522 33.2853 0 32.3171 0C31.3483 0 30.5628 0.785522 30.5628 1.75438V6.46202H26.835C25.8661 6.46202 25.0806 7.24754 25.0806 8.2164C25.0806 9.18526 25.8661 9.97078 26.835 9.97078H30.5628V20.9248C21.2498 21.4206 12.7017 25.8474 6.89958 33.2439C0.734875 41.1033 -1.4363 51.1743 0.943615 60.8752L5.29901 78.6326V88.2456C5.29901 89.2145 6.08522 90 7.05339 90H57.5802C58.5491 90 59.3346 89.2145 59.3346 88.2456V78.6326L63.69 60.8752C66.0699 51.1743 63.8987 41.1033 57.734 33.2439V33.2439ZM53.4692 33.6429C50.2036 37.1702 47.6142 41.207 45.7651 45.6667C45.1265 47.2076 44.5861 48.7759 44.1439 50.3661C42.3394 41.4171 39.3525 32.7125 35.2525 24.5359C42.2543 25.2404 48.6902 28.4518 53.4692 33.6429V33.6429ZM34.0715 76.6667V62.3742C34.0715 61.4053 33.2853 60.6198 32.3171 60.6198C31.3483 60.6198 30.5628 61.4053 30.5628 62.3742V76.6667H21.966V70.537C21.966 55.2825 25.5255 40.1118 32.2869 26.4503C39.0875 40.144 42.6676 55.3546 42.6676 70.6558V76.6667H34.0715ZM29.3186 24.5421C25.2584 32.6672 22.2949 41.3127 20.4993 50.2C18.8266 44.0051 15.7532 38.2468 11.4479 33.3401C16.1823 28.3427 22.4782 25.2452 29.3186 24.5421V24.5421ZM9.16413 36.0606C15.1709 43.0994 18.4572 51.9818 18.4572 61.2914V76.6667H8.43011L4.35144 60.0396C2.29562 51.6584 4.05069 42.9662 9.16413 36.0606V36.0606ZM55.8258 86.4912H8.80777V80.1755H55.8258V86.4912ZM60.2821 60.0396L56.2042 76.6667H46.1764V61.2275C46.1764 51.9626 49.5471 43.2188 55.7077 36.3915C60.6358 43.2436 62.3057 51.7909 60.2821 60.0396V60.0396Z" fill="white"/>
<path d="M32.3172 54.1331C31.8557 54.1331 31.4025 54.3212 31.0764 54.6474C30.7502 54.9735 30.5628 55.426 30.5628 55.8875C30.5628 56.3489 30.7502 56.8021 31.0764 57.1282C31.4032 57.4544 31.8557 57.6418 32.3172 57.6418C32.7786 57.6418 33.2311 57.4544 33.5572 57.1282C33.8834 56.8021 34.0715 56.3489 34.0715 55.8875C34.0715 55.426 33.8834 54.9735 33.5572 54.6474C33.2311 54.3212 32.7786 54.1331 32.3172 54.1331Z" fill="white"/>
</svg>
