<svg width="100" height="80" viewBox="0 0 100 80" fill="none" xmlns="http://www.w3.org/2000/svg">
<path d="M99.839 56.3802C99.711 54.0847 98.584 51.9818 96.7469 50.6106C93.7652 48.3849 89.6292 48.6167 86.9192 51.1567L79.5977 57.9577C78.8033 54.5312 75.7452 51.8933 72.2188 51.8933L62.0976 51.8791H62.0949C61.0189 51.8791 60.1462 52.7504 60.1447 53.8265C60.1431 54.9036 61.015 55.7779 62.0921 55.7795L72.2161 55.7937C74.2116 55.7937 75.8975 57.5858 75.8975 59.7068C75.8975 61.7547 74.2461 63.4208 72.2161 63.4208H54.9109C53.834 63.4208 52.9606 64.2941 52.9606 65.371C52.9606 66.4479 53.834 67.3213 54.9109 67.3213H73.1274C74.3656 67.3213 75.5785 66.892 76.5434 66.1125C76.5783 66.0842 76.6121 66.055 76.6448 66.0244L89.5799 54.0087C90.9152 52.7574 92.9485 52.6428 94.4138 53.7364C95.3232 54.4151 95.881 55.4581 95.9448 56.5976C96.008 57.7326 95.5734 58.8277 94.7516 59.6044L78.2177 74.4639C77.2163 75.3751 75.9835 75.9393 74.6469 76.0992H54.1762C49.6911 76.0992 45.3082 74.8506 41.4903 72.4868L35.1302 66.8807C34.7741 66.5669 34.3154 66.3935 33.8407 66.3935H31.1931V55.7922L44.4641 55.7797C45.5411 55.7787 46.4134 54.9048 46.4124 53.8275C46.4114 52.751 45.5385 51.8792 44.4622 51.8792H44.4602L31.1931 51.8917V51.3554C31.1931 50.2785 30.3198 49.4052 29.2429 49.4052H21.1364V49.3108C21.1364 48.2339 20.2631 47.3606 19.1862 47.3606H1.95022C0.873112 47.3606 0 48.2339 0 49.3108V71.8625C0 72.9394 0.873112 73.8127 1.95022 73.8127H19.1862C20.2631 73.8127 21.1364 72.9394 21.1364 71.8625V71.7683H29.2427C30.1554 71.7683 30.9216 71.1411 31.1342 70.2942H33.1037L39.032 75.5196C39.1108 75.589 39.1952 75.6522 39.2844 75.7082C43.7552 78.5157 48.9046 80 54.176 80H74.7553C74.8233 80 74.8912 79.9963 74.9591 79.9893C77.164 79.7576 79.1981 78.8449 80.8331 77.3575L97.3745 62.4913C97.3844 62.4824 97.3942 62.4734 97.4039 62.4642C99.0795 60.8949 99.9671 58.6773 99.839 56.3802V56.3802ZM17.236 69.9119H3.90043V51.2606H17.236V69.9119ZM21.1364 53.3054H27.2925V67.8675H21.1364V53.3054Z" fill="white"/>
<path d="M51.513 54.5756C51.8272 55.3288 52.5942 55.815 53.4094 55.7764C54.2103 55.7385 54.92 55.1925 55.1675 54.4311C55.4125 53.677 55.166 52.8237 54.5509 52.3216C53.8927 51.7841 52.9384 51.7377 52.2307 52.2079C51.4629 52.718 51.1649 53.7261 51.513 54.5756V54.5756Z" fill="white"/>
<path d="M71.1792 47.0279C81.2251 47.0279 89.3981 38.8549 89.3981 28.809C89.3981 28.0223 89.347 27.2299 89.2466 26.4537C89.246 26.4488 89.2456 26.4441 89.2448 26.4393C88.385 19.8257 83.9611 14.237 77.8128 11.8355V3.90043H80.2257C81.3026 3.90043 82.1759 3.02713 82.1759 1.95022C82.1759 0.873307 81.3026 0 80.2257 0H62.1323C61.0554 0 60.1821 0.873307 60.1821 1.95022C60.1821 3.02713 61.0554 3.90043 62.1323 3.90043H64.5453V11.8357C58.4039 14.2344 53.9833 19.8134 53.1163 26.4168C53.1153 26.4245 53.1141 26.4319 53.1132 26.4395C53.0116 27.2209 52.9603 28.0182 52.9603 28.809C52.9603 38.8549 61.1334 47.0279 71.1792 47.0279ZM67.0564 15.0925C67.8812 14.8449 68.446 14.0858 68.446 13.2246V3.90043H73.9126V13.2248C73.9126 14.086 74.4774 14.8452 75.3023 15.0927C79.9694 16.4934 83.5588 20.1637 84.9118 24.7408H57.4465C58.7998 20.1637 62.3892 16.4934 67.0564 15.0925ZM56.8617 28.6411H85.4967C85.4973 28.697 85.4977 28.753 85.4977 28.809C85.4977 36.7042 79.0742 43.1275 71.1792 43.1275C63.2841 43.1275 56.8607 36.7042 56.8607 28.809C56.8607 28.753 56.8613 28.697 56.8617 28.6411Z" fill="white"/>
</svg>
