<svg width="90" height="90" viewBox="0 0 90 90" fill="none" xmlns="http://www.w3.org/2000/svg">
<path d="M76.8407 13.1838C63.6954 -0.322028 42.0614 -3.88529 25.2527 4.51651C23.712 5.3339 24.8103 7.60078 26.4104 6.88844C32.2023 4.06197 38.4524 2.62885 44.9864 2.62885C101.255 4.86564 101.254 85.2116 44.986 87.4475C3.06889 87.3722 -13.2309 32.5401 21.7763 9.52732C23.2102 8.56845 21.7922 6.38516 20.3269 7.32098C-3.3138 22.1155 -7.03104 57.6167 13.1502 76.9107C29.9149 94.3634 60.0584 94.3627 76.8226 76.9107C94.3148 60.1472 94.3241 29.9574 76.8407 13.1838V13.1838Z" fill="white"/>
<path d="M42.6715 8.75938C42.6865 8.00358 41.9766 7.35301 41.2212 7.4461C11.5665 10.1246 -3.31742 46.0979 15.7552 68.9449C16.2234 69.5408 17.1835 69.5909 17.7092 69.0417L42.2851 44.4658C42.5325 44.2183 42.6715 43.8826 42.6715 43.5326V8.75938ZM40.032 42.986L16.8948 66.123C0.78573 45.2846 13.9768 13.618 40.032 10.2476V42.986Z" fill="white"/>
<path d="M40.4184 52.88L20.9829 72.3157C20.4362 72.8397 20.4817 73.8024 21.0799 74.2698C26.8579 79.0037 33.8227 81.8947 41.2211 82.6305C41.5893 82.6672 41.9616 82.546 42.2376 82.2954C42.5138 82.0452 42.6715 81.6899 42.6715 81.317V53.8132C42.7078 52.6773 41.1993 52.0435 40.4184 52.88V52.88ZM40.0319 79.8292C34.1735 78.9996 28.6486 76.7053 23.9012 73.1304L40.0319 56.9996V79.8292Z" fill="white"/>
<path d="M47.3014 81.3172C47.2841 82.0742 48.0007 82.7235 48.7517 82.6305C56.1501 81.8947 63.115 79.0037 68.893 74.2698C69.1814 74.0335 69.3563 73.6865 69.3748 73.3141C69.3931 72.9418 69.2534 72.5791 68.9898 72.3157L49.5545 52.88C48.7762 52.0514 47.2623 52.6692 47.3014 53.8134C47.3014 53.8132 47.3014 81.3172 47.3014 81.3172V81.3172ZM49.941 56.9995L66.0716 73.1304C61.3241 76.7053 55.7994 78.9996 49.941 79.8292V56.9995Z" fill="white"/>
<path d="M65.1483 58.1932C63.9204 56.9735 62.0684 58.8388 63.2818 60.0597C63.5619 60.1704 72.9208 70.2082 73.1971 69.4285C73.5911 69.4283 73.9687 69.2506 74.2181 68.9449C79.7301 62.217 82.7658 53.7266 82.7658 45.0382C83.206 26.3286 66.6824 7.39471 47.7351 7.78044C47.459 8.0312 47.3014 8.38649 47.3014 8.7592V43.5324C47.3014 43.8824 47.4404 44.2182 47.6878 44.4656L59.6171 56.3949C60.8438 57.606 62.6988 55.7579 61.4837 54.5284L49.9409 42.9856V10.2476C76.0049 13.6203 89.1824 45.2918 73.0781 66.123L65.1483 58.1932Z" fill="white"/>
</svg>
