<svg width="100" height="100" viewBox="0 0 100 100" fill="none" xmlns="http://www.w3.org/2000/svg">
<path d="M100 50C100 29.3213 86.7887 10.2723 67.3746 3.08965C61.8244 1.03633 55.9164 0 50 0C29.1703 0 10.0004 13.4094 2.93926 33.032C0.984766 38.4639 0 44.2287 0 50C0 70.6838 13.2088 89.7307 32.6314 96.9113C38.1785 98.9621 44.0875 100 50 100C70.9164 100 90.1549 86.4697 97.1443 66.7344C99.0437 61.3709 100 55.6885 100 50ZM83.093 82.0506L78.5264 76.5031C81.4607 73.4648 83.8648 69.9988 85.6863 66.1775C86.1504 65.2039 85.7373 64.0381 84.7635 63.574C83.79 63.1098 82.6242 63.5229 82.16 64.4969C80.5854 67.8004 78.5266 70.809 76.0258 73.4654L65.4977 60.6758V39.9787L84.6018 41.2254C85.1662 43.5914 85.4836 46.0287 85.5463 48.4891C85.5738 49.5674 86.4719 50.4191 87.5486 50.3918C88.627 50.3641 89.4789 49.4678 89.4514 48.3895C89.3918 46.0605 89.1234 43.7504 88.6578 41.49L95.3855 41.9291C95.8504 44.5504 96.0938 47.2473 96.0938 50C96.0938 62.4436 91.1352 73.7492 83.093 82.0506V82.0506ZM74.7141 88.892L65.4977 80.5939V66.8221L65.6648 67.0252L74.3777 77.6096C74.3781 77.6102 74.3787 77.6105 74.3791 77.6109L80.2533 84.7469C78.516 86.2615 76.6648 87.648 74.7141 88.892V88.892ZM55.8539 95.7236L51.768 64.4957C51.6408 63.5232 50.8121 62.7961 49.8314 62.7961C48.8508 62.7961 48.0221 63.5234 47.8949 64.4957L43.815 95.6773C41.8594 95.4139 39.9424 95.027 38.0717 94.5254V37.8646C38.0717 36.7584 37.0977 35.84 35.9914 35.9156L5.51973 37.9049C6.02617 36.0445 6.64609 34.2307 7.37227 32.4711L49.8035 24.4932C49.8129 24.4934 49.8221 24.4936 49.8318 24.4937C49.8439 24.4941 49.8561 24.4943 49.8688 24.4947L92.6299 32.4764C93.3619 34.2506 93.9857 36.0799 94.4943 37.9564L63.6717 35.9451C62.5613 35.8717 61.5914 36.7828 61.5914 37.8941V94.617C59.7219 95.1029 57.807 95.4752 55.8539 95.7236ZM18.7279 83.8297L25.0344 76.1674C25.0385 76.1625 25.0434 76.1582 25.0475 76.1531L34.1656 65.0734V79.2969L24.2578 88.2186C22.3023 86.8971 20.4551 85.4273 18.7279 83.8297V83.8297ZM16.309 41.1154L34.1654 39.9494V58.9262L33.0232 60.3141L23.4795 71.9098C18.2062 65.6022 15.3258 57.6937 15.3258 49.4068C15.3258 46.6 15.6561 43.8172 16.309 41.1154V41.1154ZM34.1654 84.5535V93.2914C31.9352 92.473 29.7867 91.4846 27.7324 90.3463L34.1654 84.5535ZM15.302 19.6916L21.4801 25.8438L9.44629 28.1063C11.0855 25.0822 13.0541 22.2619 15.302 19.6916V19.6916ZM22.5973 12.9598L35.7143 23.1668L26.1369 24.9682L17.9959 16.8617C19.4422 15.4645 20.9789 14.1602 22.5973 12.9598V12.9598ZM90.5588 28.1162L77.9549 25.7637L84.3961 19.3516C86.7721 22.015 88.8457 24.9539 90.5588 28.1162ZM81.6766 16.5467L73.2926 24.8932L63.7197 23.1064L77.0707 12.7174C78.6881 13.8951 80.2271 15.1736 81.6766 16.5467ZM58.5893 22.1488L56.8357 21.8215C58.8367 19.976 60.093 17.3344 60.093 14.4039V10.8971C60.093 8.50762 59.2566 6.31094 57.8637 4.58008C63.5412 5.56016 68.866 7.58203 73.6344 10.4416L58.5893 22.1488ZM56.1869 14.4039C56.1869 17.81 53.4203 20.5816 50.0162 20.5904C49.983 20.59 49.9537 20.5895 49.9289 20.5889C49.9203 20.5887 49.9104 20.5885 49.9014 20.5883C46.5354 20.5352 43.8131 17.7824 43.8131 14.4039V10.8971C43.8131 7.48555 46.5885 4.71016 50 4.71016C53.4115 4.71016 56.1869 7.48555 56.1869 10.8971V14.4039ZM43.1162 21.7758L40.8375 22.2043L26.0025 10.6602C30.8629 7.68438 36.3145 5.58496 42.1361 4.58008C40.7432 6.31074 39.9068 8.50762 39.9068 10.8971V14.4039C39.9068 17.3105 41.1436 19.9324 43.1162 21.7758ZM65.4977 85.8502L71.1551 90.9439C69.3363 91.8875 67.4471 92.7123 65.4977 93.4103V85.8502ZM4.62305 41.8781L12.2461 41.3805C11.6971 44.0092 11.4195 46.6984 11.4195 49.4068C11.4195 58.8627 14.7953 67.8738 20.959 74.9725L15.96 81.0463C8.47656 72.8482 3.90625 61.948 3.90625 50C3.90625 47.2295 4.15234 44.5152 4.62305 41.8781ZM47.7074 96.0365L49.8314 79.8037L51.9572 96.0494C51.3078 96.0766 50.6559 96.0938 50 96.0938C49.2312 96.0938 48.467 96.0738 47.7074 96.0365V96.0365Z" fill="white"/>
<path d="M88.5098 56.3846C88.1061 55.4004 86.9398 54.9195 85.9588 55.3279C84.9764 55.7369 84.4957 56.8928 84.9023 57.8769C85.309 58.8611 86.4693 59.3416 87.4531 58.9355C88.435 58.5301 88.9182 57.3658 88.5098 56.3846V56.3846Z" fill="white"/>
</svg>
