<svg width="85" height="90" viewBox="0 0 85 90" fill="none" xmlns="http://www.w3.org/2000/svg">
<path d="M12.0627 32.4012C12.6627 32.9352 13.3167 33.5007 13.9962 34.1127C14.5666 34.6261 15.4327 34.6261 16.0031 34.1127C16.6826 33.5007 17.3291 32.9352 17.9366 32.4012C21.457 29.3188 23.9995 27.0913 23.9995 23.7284C24.1681 21.5259 22.9575 19.4485 20.9581 18.5095C18.9587 17.5704 16.587 17.9653 14.9997 19.5015C13.9863 18.5423 12.6451 18.0058 11.2497 18.0015C9.78958 18.0518 8.41091 18.6869 7.42363 19.7638C6.43635 20.8408 5.92332 22.2694 5.99985 23.7284C5.99985 27.0913 8.5498 29.3188 12.0627 32.4012ZM11.2497 21.0014C12.2735 21.0694 13.1855 21.6719 13.6497 22.5869C13.9003 23.1044 14.4247 23.4331 14.9997 23.4331C15.5746 23.4331 16.099 23.1044 16.3496 22.5869C16.8135 21.6717 17.7258 21.0691 18.7496 21.0014C19.4113 21.0606 20.0217 21.3823 20.4445 21.8947C20.8672 22.4071 21.0672 23.0675 20.9995 23.7284C20.9995 25.6454 19.3631 27.1648 15.9596 30.1483L14.9997 30.9927L14.0397 30.1483C10.6363 27.1648 8.99979 25.6514 8.99979 23.7284C8.93217 23.0675 9.13208 22.4071 9.55486 21.8947C9.97764 21.3823 10.5881 21.0606 11.2497 21.0014Z" fill="white"/>
<path d="M28.4994 22.5014H37.4992C38.3276 22.5014 38.9992 21.8299 38.9992 21.0015C38.9992 20.1731 38.3276 19.5015 37.4992 19.5015H28.4994C27.671 19.5015 26.9995 20.1731 26.9995 21.0015C26.9995 21.8299 27.671 22.5014 28.4994 22.5014Z" fill="white"/>
<path d="M26.9995 28.5013H37.4993C38.3277 28.5013 38.9992 27.8297 38.9992 27.0013C38.9992 26.1729 38.3277 25.5014 37.4993 25.5014H26.9995C26.1711 25.5014 25.4995 26.1729 25.4995 27.0013C25.4995 27.8297 26.1711 28.5013 26.9995 28.5013Z" fill="white"/>
<path d="M37.4992 31.5012H23.9995C23.1711 31.5012 22.4995 32.1728 22.4995 33.0012C22.4995 33.8296 23.1711 34.5012 23.9995 34.5012H37.4992C38.3276 34.5012 38.9992 33.8296 38.9992 33.0012C38.9992 32.1728 38.3276 31.5012 37.4992 31.5012Z" fill="white"/>
<path d="M7.49985 40.5011H37.4992C38.3276 40.5011 38.9992 39.8295 38.9992 39.0011C38.9992 38.1727 38.3276 37.5011 37.4992 37.5011H7.49985C6.67144 37.5011 5.99988 38.1727 5.99988 39.0011C5.99988 39.8295 6.67144 40.5011 7.49985 40.5011Z" fill="white"/>
<path d="M7.49985 46.5009H37.4992C38.3276 46.5009 38.9992 45.8294 38.9992 45.0009C38.9992 44.1725 38.3276 43.501 37.4992 43.501H7.49985C6.67144 43.501 5.99988 44.1725 5.99988 45.0009C5.99988 45.8294 6.67144 46.5009 7.49985 46.5009Z" fill="white"/>
<path d="M7.49985 52.5008H17.9996C18.828 52.5008 19.4996 51.8292 19.4996 51.0008C19.4996 50.1724 18.828 49.5009 17.9996 49.5009H7.49985C6.67144 49.5009 5.99988 50.1724 5.99988 51.0008C5.99988 51.8292 6.67144 52.5008 7.49985 52.5008Z" fill="white"/>
<path d="M37.4992 49.5009H23.9995C23.1711 49.5009 22.4995 50.1724 22.4995 51.0008C22.4995 51.8292 23.1711 52.5008 23.9995 52.5008H37.4992C38.3276 52.5008 38.9992 51.8292 38.9992 51.0008C38.9992 50.1724 38.3276 49.5009 37.4992 49.5009Z" fill="white"/>
<path d="M7.49985 58.5007H37.4992C38.3276 58.5007 38.9992 57.8291 38.9992 57.0007C38.9992 56.1723 38.3276 55.5007 37.4992 55.5007H7.49985C6.67144 55.5007 5.99988 56.1723 5.99988 57.0007C5.99988 57.8291 6.67144 58.5007 7.49985 58.5007Z" fill="white"/>
<path d="M77.9414 0.00189665C77.3938 0.0223806 76.901 0.339809 76.6559 0.829879C74.5679 5.00579 70.374 8.12123 65.9326 11.4167C61.5334 14.3648 57.6141 17.9725 54.3124 22.1129C54.2817 22.1508 54.2531 22.1904 54.2269 22.2314C51.0396 26.6754 49.3805 32.0336 49.499 37.5011C49.499 37.7876 49.5185 38.0531 49.5245 38.3321V38.4371C49.5531 43.9353 51.0937 49.3196 53.9779 54.0008H52.4989C50.0137 54.0008 47.999 56.0154 47.999 58.5007C47.999 60.9859 50.0137 63.0006 52.4989 63.0006V66.0005H50.3614C49.3869 63.7688 47.3858 62.1522 44.999 61.6686V14.8516C48.7751 14.0848 51.3557 10.5816 50.9685 6.74801C50.5813 2.91445 47.3521 -0.00197569 43.4991 0.00189665H7.49984C3.35985 0.00685572 0.00495908 3.36175 0 7.50174V69.0004C0.00495908 73.1404 3.35985 76.4953 7.49984 76.5003H41.9991V84.0001C41.9991 87.3138 44.6853 90 47.999 90H71.9985C75.3121 90 77.9984 87.3138 77.9984 84.0001V72.0004C77.9984 68.6867 75.3121 66.0005 71.9985 66.0005H67.4986V63.0006C69.614 62.9906 71.4369 61.5085 71.8782 59.4395C72.3196 57.3706 71.2602 55.2736 69.333 54.4012C72.2955 51.5693 74.6474 46.5939 76.4534 39.3656C77.0418 37.4545 77.9321 35.6497 79.0903 34.0197C82.3906 29.3393 84.11 23.7273 83.9982 18.0015C83.8632 11.9452 82.2444 6.01449 79.2838 0.729381C79.0077 0.254755 78.4897 -0.025959 77.9414 0.00189665V0.00189665ZM13.4997 3.00183H43.4991C45.9843 3.00183 47.999 5.01651 47.999 7.50174C47.999 9.98697 45.9843 12.0016 43.4991 12.0016H13.4997C15.5037 9.33637 15.5037 5.66711 13.4997 3.00183ZM7.49984 73.5003C5.01461 73.5003 2.99994 71.4857 2.99994 69.0004V7.50174C2.99994 5.01651 5.01461 3.00183 7.49984 3.00183C9.98507 3.00183 11.9997 5.01651 11.9997 7.50174C11.9997 9.98697 9.98507 12.0016 7.49984 12.0016C6.67143 12.0016 5.99987 12.6732 5.99987 13.5016C5.99987 14.33 6.67143 15.0016 7.49984 15.0016H41.9991V61.5006H7.49984C6.67143 61.5006 5.99987 62.1722 5.99987 63.0006C5.99987 63.829 6.67143 64.5005 7.49984 64.5005C9.98507 64.5005 11.9997 66.5152 11.9997 69.0004C11.9997 71.4857 9.98507 73.5003 7.49984 73.5003ZM13.4997 73.5003C15.5037 70.8351 15.5037 67.1658 13.4997 64.5005H43.4991C44.8232 64.5028 46.0784 65.0916 46.9265 66.1085C44.0775 66.6261 42.0046 69.1047 41.9991 72.0004V73.5003H13.4997ZM74.9984 72.0004V84.0001C74.9984 85.6569 73.6553 87.0001 71.9985 87.0001H47.999C46.3422 87.0001 44.999 85.6569 44.999 84.0001V72.0004C44.999 70.3436 46.3422 69.0004 47.999 69.0004H71.9985C73.6553 69.0004 74.9984 70.3436 74.9984 72.0004ZM64.4986 66.0005H55.4988V63.0006H64.4986V66.0005ZM67.4986 60.0006H52.4989C51.6705 60.0006 50.9989 59.3291 50.9989 58.5007C50.9989 57.6723 51.6705 57.0007 52.4989 57.0007H67.4986C68.327 57.0007 68.9985 57.6723 68.9985 58.5007C68.9985 59.3291 68.327 60.0006 67.4986 60.0006ZM80.6833 22.2014C79.5084 23.2204 78.0461 23.8493 76.4984 24.0014C75.67 24.0014 74.9984 24.673 74.9984 25.5014C74.9984 26.3298 75.67 27.0013 76.4984 27.0013C77.6052 26.9782 78.6954 26.7269 79.7008 26.2633C78.8944 28.4334 77.8373 30.5019 76.5509 32.4267C75.2206 34.3202 74.2073 36.4176 73.5509 38.6366C73.2 40.0436 72.834 41.3215 72.4575 42.49C70.9039 43.2027 69.2072 43.5486 67.4986 43.501C66.6702 43.501 65.9986 44.1725 65.9986 45.0009C65.9986 45.8294 66.6702 46.5009 67.4986 46.5009C68.7089 46.5063 69.9161 46.3786 71.0985 46.1199C68.775 51.5198 66.2491 53.4488 64.2811 54.0008H61.3487C61.0622 49.7153 61.2302 35.1012 74.5994 20.5155C75.1594 19.9049 75.1185 18.956 74.5079 18.396C73.8974 17.836 72.9485 17.877 72.3885 18.4875C58.3788 33.7767 58.0038 48.9429 58.3383 54.0008H57.6798C55.0471 50.5436 53.3784 46.45 52.8439 42.1375C53.4751 42.5855 54.1384 42.9866 54.8283 43.3375C55.5698 43.7078 56.471 43.4069 56.8413 42.6655C57.2116 41.9241 56.9107 41.0228 56.1693 40.6525C54.7904 39.9584 53.5505 39.0173 52.5109 37.8761C52.5109 37.7471 52.4989 37.6256 52.4989 37.4951C52.4422 33.9153 53.2207 30.3716 54.7728 27.1453C55.3976 28.6094 56.3031 29.9369 57.4383 31.0527C58.0268 31.6212 58.9624 31.6131 59.541 31.0345C60.1196 30.4559 60.1277 29.5203 59.5592 28.9318C58.0845 27.5102 57.1632 25.6106 56.9598 23.5724C58.6032 21.4268 60.4948 19.4834 62.5952 17.7825C62.5403 19.0281 62.7028 20.2736 63.0752 21.4634C63.2751 22.081 63.8495 22.4999 64.4986 22.5014C64.6587 22.5017 64.8178 22.4758 64.9696 22.4249C65.7556 22.1645 66.1819 21.3166 65.9221 20.5305C65.4591 18.7615 65.4731 16.9014 65.9626 15.1396C66.5496 14.6996 67.1356 14.2621 67.7206 13.8271C71.6205 10.9322 75.3434 8.16772 77.8829 4.5918C79.8341 8.79933 80.8948 13.3647 80.9983 18.0015C80.9985 19.4074 80.8932 20.8113 80.6833 22.2014V22.2014Z" fill="white"/>
<path d="M49.499 76.5003H53.9989C54.8273 76.5003 55.4988 75.8287 55.4988 75.0003C55.4988 74.1719 54.8273 73.5004 53.9989 73.5004H49.499C48.6706 73.5004 47.999 74.1719 47.999 75.0003C47.999 75.8287 48.6706 76.5003 49.499 76.5003Z" fill="white"/>
<path d="M58.4988 75.0003C58.4988 75.8287 59.1703 76.5003 59.9987 76.5003H70.4985C71.3269 76.5003 71.9985 75.8287 71.9985 75.0003C71.9985 74.1719 71.3269 73.5004 70.4985 73.5004H59.9987C59.1703 73.5004 58.4988 74.1719 58.4988 75.0003Z" fill="white"/>
<path d="M70.4985 79.5002H49.499C48.6706 79.5002 47.999 80.1718 47.999 81.0002C47.999 81.8286 48.6706 82.5002 49.499 82.5002H70.4985C71.3269 82.5002 71.9985 81.8286 71.9985 81.0002C71.9985 80.1718 71.3269 79.5002 70.4985 79.5002Z" fill="white"/>
</svg>
