<svg width="90" height="90" viewBox="0 0 90 90" fill="none" xmlns="http://www.w3.org/2000/svg">
<path d="M89.3201 58.6234C86.8847 56.7322 83.0275 55.6875 77.8558 55.5186C74.2848 55.4017 70.1266 55.7378 66.2258 56.4467C64.6288 52.1339 61.6274 48.7193 57.654 46.7386C53.1837 44.5101 47.9953 44.3336 43.045 46.2415C42.2292 46.556 41.7685 47.4219 41.9638 48.2741C41.9736 48.317 41.985 48.3588 41.9951 48.4015C38.6842 47.7736 35.1637 48.1087 31.7938 49.4089C30.9783 49.7236 30.5179 50.5893 30.7131 51.4411C30.7229 51.484 30.7343 51.5262 30.7444 51.5689C27.4349 50.9417 23.9145 51.2766 20.5436 52.5756C19.7274 52.8901 19.2667 53.7569 19.4625 54.6092C19.4724 54.6518 19.4836 54.6934 19.4936 54.7358C16.1844 54.1084 12.6656 54.4435 9.29728 55.743C8.48183 56.0577 8.02146 56.9234 8.21658 57.7752C8.83322 60.4687 9.95259 62.8829 11.4638 64.9202C6.59359 66.6912 2.56556 70.4422 0.167905 75.5378C-0.204224 76.3286 0.061206 77.2727 0.790874 77.7537C4.3413 80.094 8.28953 81.2927 12.2024 81.2925C13.4631 81.2925 14.7198 81.1633 15.9587 80.9125C15.7282 83.4428 16.0301 86.0908 16.9079 88.7143C17.1512 89.4414 17.8304 89.9146 18.5738 89.9146C18.6791 89.9146 18.7858 89.9051 18.8925 89.8854C22.4468 89.2325 25.623 87.6793 28.1178 85.4183C28.1319 85.4611 28.1444 85.5042 28.1588 85.5473C28.4021 86.2743 29.0813 86.7475 29.8247 86.7475C29.93 86.7475 30.0367 86.738 30.1434 86.7183C33.698 86.0653 36.8726 84.5128 39.3645 82.2533C39.3782 82.2953 39.3903 82.3372 39.4044 82.3792C39.6473 83.1067 40.3269 83.5805 41.0706 83.5803C41.1757 83.5803 41.2824 83.5708 41.3891 83.5513C44.9464 82.8984 48.1228 81.3459 50.6154 79.0859C50.6291 79.1279 50.6412 79.1699 50.6553 79.2119C50.8982 79.9395 51.5778 80.4132 52.3215 80.4131C52.4266 80.4131 52.5333 80.4036 52.64 80.3841C57.7178 79.4521 61.9773 76.7246 64.6337 72.7038C67.0982 68.9737 67.9819 64.44 67.1583 59.8512C74.7194 58.5204 83.5831 58.6186 87.1645 61.3997C87.9313 61.995 89.0357 61.8562 89.6309 61.0894C90.2257 60.323 90.0869 59.2188 89.3201 58.6234V58.6234ZM20.9071 58.7547C22.6299 62.3403 25.3721 65.1584 28.7491 66.8612L23.7985 68.255C18.3305 67.6956 13.8811 63.9631 12.0715 58.522C15.0784 57.6823 18.1477 57.7605 20.9071 58.7547V58.7547ZM16.7402 77.0943C12.6204 78.3652 8.11867 77.8401 4.07939 75.6334C6.37966 71.6361 9.94732 68.8375 14.1211 67.7756C15.8787 69.2815 17.9257 70.4171 20.175 71.1009C18.6119 72.8574 17.4563 74.8935 16.7402 77.0943V77.0943ZM27.2293 81.2517C25.3955 83.5399 22.8164 85.21 19.8086 86.066C18.5196 80.479 20.3743 74.9717 24.7511 71.6391L29.6992 70.246C27.7037 73.4607 26.8315 77.295 27.2293 81.2517ZM23.3185 55.3551C26.3273 54.5156 29.3968 54.5934 32.1553 55.5866C33.8766 59.1729 36.619 61.9914 39.9977 63.6941L35.0482 65.0876C29.5821 64.5281 25.1318 60.7959 23.3185 55.3551ZM38.4773 78.0831C36.6473 80.3719 34.0691 82.0425 31.0595 82.899C29.7705 77.3114 31.6254 71.8038 36.003 68.4712L40.9504 67.0783C38.9549 70.2926 38.0816 74.1266 38.4773 78.0831V78.0831ZM34.5681 52.1877C37.5757 51.3475 40.6456 51.4253 43.4062 52.4195C45.1275 56.0057 47.8695 58.824 51.248 60.5269L46.2982 61.9205C40.828 61.3601 36.3776 57.6279 34.5681 52.1877ZM49.7282 74.9158C47.898 77.2049 45.3182 78.8755 42.3065 79.7319C41.0211 74.1435 42.8777 68.6352 47.2544 65.3034L52.2014 63.9107C50.2058 67.125 49.3325 70.9592 49.7282 74.9158V74.9158ZM45.819 49.0208C49.361 48.0313 52.9559 48.3249 56.0857 49.8851C59.1274 51.4012 61.4591 53.9944 62.7777 57.2808L57.5477 58.7533C52.0782 58.1925 47.6285 54.4605 45.819 49.0208V49.0208ZM61.6998 70.7664C59.8481 73.569 56.9938 75.591 53.5574 76.5656C52.2714 70.9762 54.1284 65.4676 58.5064 62.1357L63.7287 60.6654C64.3326 64.2939 63.6263 67.8503 61.6998 70.7664Z" fill="white"/>
<path d="M2.83624 16.5561C6.42376 13.7704 15.2863 13.6731 22.8419 15.0075C22.5417 16.6769 22.4654 18.3493 22.6194 19.9904C22.7101 20.957 23.5675 21.6663 24.5336 21.5764C25.5002 21.4857 26.2102 20.6286 26.1197 19.6622C26.0016 18.4017 26.054 17.1137 26.2698 15.8222L31.4967 17.2939C35.8731 20.6265 37.7276 26.1336 36.4393 31.7203C35.3472 31.4104 34.3102 30.9952 33.3429 30.4798C32.486 30.0233 31.4214 30.3478 30.9649 31.2047C30.5084 32.0615 30.8331 33.1262 31.6899 33.5827C33.4239 34.5064 35.3292 35.165 37.3532 35.5402C37.7953 35.6223 38.2593 35.5289 38.6355 35.283C39.0191 35.0323 39.2414 34.6681 39.3813 34.2408C41.876 36.5019 45.0522 38.0551 48.6067 38.7079C49.0479 38.7891 49.5109 38.6956 49.8864 38.4502C50.2698 38.1996 50.4923 37.8353 50.632 37.408C53.1273 39.6698 56.3036 41.223 59.8579 41.8751C60.2991 41.9562 60.762 41.8627 61.1374 41.6171C61.5208 41.3664 61.7432 41.0022 61.8831 40.5751C64.3783 42.8368 67.5545 44.39 71.1088 45.0422C71.9596 45.1983 72.8197 44.6899 73.0935 43.8697C73.9691 41.2459 74.2695 38.5982 74.0387 36.0686C75.2757 36.3191 76.5304 36.4479 77.7904 36.4479C81.701 36.4477 85.6524 35.2498 89.2085 32.9112C89.9397 32.4302 90.2059 31.4847 89.8327 30.693C87.4308 25.5976 83.4015 21.8468 78.5338 20.076C80.0473 18.0374 81.1681 15.6215 81.7847 12.9264C81.9798 12.0739 81.5186 11.2076 80.7024 10.8937C77.3264 9.59519 73.8063 9.26156 70.5018 9.89016C70.5122 9.84639 70.5238 9.80332 70.5338 9.7592C70.7289 8.90666 70.2675 8.04041 69.4514 7.72646C66.0757 6.42797 62.5556 6.09433 59.2508 6.72293C59.2611 6.67916 59.2727 6.63609 59.2829 6.59197C59.4781 5.73943 59.0166 4.87318 58.2005 4.55924C54.8251 3.26091 51.3056 2.92728 48.0013 3.55552C48.0111 3.51351 48.0224 3.4722 48.0321 3.43002C48.2272 2.57783 47.7665 1.71193 46.9507 1.39746C42.0024 -0.509419 36.8162 -0.333813 32.3473 1.89193C28.3722 3.87175 25.3684 7.28701 23.7692 11.6014C19.8717 10.8914 15.7147 10.555 12.1421 10.6724C6.97237 10.8425 3.11608 11.8877 0.679932 13.7795C-0.0868255 14.3749 -0.225693 15.4791 0.369678 16.2461C0.96505 17.0126 2.06948 17.1517 2.83624 16.5561V16.5561ZM47.6896 34.8878C44.682 34.0318 42.103 32.3617 40.269 30.0735C40.667 26.1171 39.795 22.2831 37.7997 19.0684L42.7409 20.4595C47.122 23.7913 48.9788 29.2992 47.6896 34.8878ZM58.9402 38.0552C55.9329 37.1995 53.354 35.5294 51.5197 33.2406C51.9175 29.2838 51.045 25.4498 49.0486 22.2355L53.9925 23.6273C58.3719 26.9585 60.2283 32.4663 58.9402 38.0552ZM70.19 41.2221C67.1831 40.3662 64.604 38.696 62.7701 36.4071C63.1672 32.4506 62.2944 28.6168 60.299 25.403L65.2444 26.7954C69.6199 30.1242 71.4757 35.631 70.19 41.2221ZM85.9189 30.7888C81.8722 32.995 77.3693 33.5199 73.2556 32.2494C72.5391 30.0477 71.3832 28.0115 69.8198 26.2554C72.0689 25.5711 74.1157 24.4357 75.8735 22.9308C80.0455 23.9919 83.6146 26.7905 85.9189 30.7888ZM77.9284 13.6746C76.1193 19.1139 71.668 22.8473 66.1961 23.4109L61.2441 22.0168C64.6234 20.3136 67.3661 17.4959 69.0878 13.9115C71.8416 12.9134 74.9124 12.8338 77.9284 13.6746ZM66.6777 10.5073C64.8686 15.9463 60.418 19.6796 54.9464 20.2437L49.9938 18.8494C53.3726 17.1462 56.1152 14.3286 57.837 10.7443C60.5908 9.74619 63.6618 9.66691 66.6777 10.5073V10.5073ZM55.4268 7.34027C53.6179 12.7788 49.1676 16.5122 43.6968 17.0764L38.7455 15.6825C42.1242 13.9794 44.8668 11.1612 46.5882 7.57652C49.3415 6.57914 52.4118 6.49986 55.4268 7.34027V7.34027ZM33.914 5.03912C37.0426 3.48099 40.6357 3.18832 44.1759 4.17691C42.3668 9.61365 37.9173 13.3458 32.4482 13.9094L27.2164 12.4363C28.5369 9.14871 30.8709 6.55488 33.914 5.03912Z" fill="white"/>
<path d="M26.1394 25.4561C25.271 25.8903 24.9191 26.9462 25.3533 27.8144L25.3582 27.8244C25.6657 28.4391 26.2832 28.7924 26.9258 28.7924C27.1909 28.7924 27.4604 28.7323 27.7141 28.6056C28.5824 28.1714 28.9319 27.1106 28.4977 26.2422C28.0635 25.374 27.0079 25.0219 26.1394 25.4561Z" fill="white"/>
</svg>
